<svg xmlns="http://www.w3.org/2000/svg" style="width:662px;height:302px;background:0 0" width="662" height="302" fill="none"><svg xmlns="http://www.w3.org/2000/svg" class="role-diagram-draw-area"><g fill="none" stroke="#000" class="shapes-region"><g class="composite-shape"><path fill="none" stroke="#000" stroke-width="1" d="M222.94,33 L372.51,33 L372.51,255 L222.94,255 Z" class="real"/></g><g class="arrow-line"><path fill="none" stroke="#000" stroke-width="1" d="M131.5,141 L217.74,141.1" class="connection real"/><g stroke="#000" stroke-width="1"><path d="M10.93,-3.29 Q4.96,-0.45 0,0 Q4.96,0.45 10.93,3.29" transform="matrix(-0.9999994516886945,-0.001047197359800095,0.001047197359800095,-0.9999994516886945,219.73809492375065,141.10000000000005)"/></g></g><g class="arrow-line"><path fill="none" stroke="#000" stroke-width="1" d="M372.31,142 L513.5,143.97" class="connection real"/><g stroke="#000" stroke-width="1"><path d="M10.93,-3.29 Q4.96,-0.45 0,0 Q4.96,0.45 10.93,3.29" transform="matrix(-0.9999025240093042,-0.013962180339145168,0.013962180339145168,-0.9999025240093042,515.5,144)"/></g></g></g></svg><svg xmlns="http://www.w3.org/2000/svg" style="width:660px;height:300px;background:0 0" width="660" height="300" font-family="Asana-Math, Asana"><g><g><text x="289.07" y="129.5" fill="#000" stroke="none" dominant-baseline="text-before-edge" font-family="Arial, Helvetica, sans-serif" font-size="25.92" font-style="normal" font-weight="400" text-decoration="none solid rgb(0, 0, 0)" style="white-space:pre">A</text></g></g><g><g><g><path fill="#000" stroke="#000" stroke-width="8" d="M9 1C24 -7 40 -11 52 -11C85 -11 124 18 155 65L231 182L242 113C255 28 278 -11 314 -11C336 -11 368 6 400 35L449 79L440 98C404 68 379 53 363 53C348 53 335 63 325 83C316 102 305 139 300 168L282 269L317 318C364 383 391 406 422 406C438 406 450 398 455 383L469 387L484 472C472 479 463 482 454 482C414 482 374 446 312 354L275 299L269 347C257 446 230 482 171 482C145 482 123 474 114 461L56 378L73 368C103 402 123 416 142 416C175 416 197 375 214 277L225 215L185 153C142 86 108 54 80 54C65 54 54 58 52 63L41 91L21 88C21 53 13 27 9 1Z" transform="matrix(1,0,0,1,82.4765625,151.766625) matrix(0.029376000000000003,0,0,-0.029376000000000003,0,0)"/></g><g><path fill="#000" stroke="#000" stroke-width="8" d="M146 266C146 526 243 632 301 700L282 726C225 675 60 542 60 266C60 159 85 58 133 -32C168 -99 200 -138 282 -215L301 -194C255 -137 146 -15 146 266Z" transform="matrix(1,0,0,1,97.1171875,151.766625) matrix(0.029376000000000003,0,0,-0.029376000000000003,0,0)"/></g><g><path fill="#000" stroke="#000" stroke-width="8" d="M125 390L69 107C68 99 56 61 56 31C56 6 67 -9 86 -9C121 -9 156 11 234 74L265 99L255 117L210 86C181 66 161 56 150 56C141 56 136 64 136 76C136 102 150 183 179 328L192 390L299 390L310 440C272 436 238 434 200 434C216 528 227 577 245 631L234 646C214 634 187 622 156 610L131 440C87 419 61 408 43 403L41 390Z" transform="matrix(1,0,0,1,106.8828125,151.766625) matrix(0.029376000000000003,0,0,-0.029376000000000003,0,0)"/></g><g><path fill="#000" stroke="#000" stroke-width="8" d="M51 726L32 700C87 636 187 526 187 266C187 -10 83 -131 32 -194L51 -215C104 -165 273 -23 273 265C273 542 108 675 51 726Z" transform="matrix(1,0,0,1,116.6328125,151.766625) matrix(0.029376000000000003,0,0,-0.029376000000000003,0,0)"/></g></g></g><g><g><g><path fill="#000" stroke="#000" stroke-width="8" d="M567 55C567 39 552 30 524 28L480 25L480 -3C582 0 582 0 602 0C622 0 622 0 724 -3L724 25L698 28C651 35 650 35 642 80L555 705L509 705L136 112C100 56 82 40 48 32L28 27L28 -3C120 0 120 0 140 0C159 0 161 0 247 -3L247 25L195 28C179 29 164 38 164 47C164 55 171 69 190 102L292 277L538 277L563 89L563 86C563 84 567 69 567 55ZM496 601L533 313L317 313ZM760 1C775 -7 791 -11 803 -11C836 -11 875 18 906 65L982 182L993 113C1006 28 1029 -11 1065 -11C1087 -11 1119 6 1151 35L1200 79L1191 98C1155 68 1130 53 1114 53C1099 53 1086 63 1076 83C1067 102 1056 139 1051 168L1033 269L1068 318C1115 383 1142 406 1173 406C1189 406 1201 398 1206 383L1220 387L1235 472C1223 479 1214 482 1205 482C1165 482 1125 446 1063 354L1026 299L1020 347C1008 446 981 482 922 482C896 482 874 474 865 461L807 378L824 368C854 402 874 416 893 416C926 416 948 375 965 277L976 215L936 153C893 86 859 54 831 54C816 54 805 58 803 63L792 91L772 88C772 53 764 27 760 1Z" transform="matrix(1,0,0,1,524.625,157.21975) matrix(0.029376000000000003,0,0,-0.029376000000000003,0,0)"/></g><g><path fill="#000" stroke="#000" stroke-width="8" d="M88 -184C88 -184 182 -183 182 -183C182 -183 282 -184 282 -184L288 -178L288 -152L284 -147L246 -147C219 -147 197 -141 185 -131C176 -122 173 -108 173 -75L173 616C173 649 176 664 185 673C197 683 219 689 246 689L284 689L288 694L288 720L282 726L188 723L88 726C84 717 83 706 83 691C83 665 87 628 87 578L87 -44C87 -112 85 -140 79 -171Z" transform="matrix(1,0,0,1,561.328125,157.21975) matrix(0.029376000000000003,0,0,-0.029376000000000003,0,0)"/></g><g><path fill="#000" stroke="#000" stroke-width="8" d="M240 722L228 733C176 707 140 698 68 691L64 670L112 670C136 670 146 663 146 646C146 638 145 629 144 622L96 354C82 279 66 210 14 1L23 -9L90 8L113 132C122 180 146 225 180 259C249 59 281 -9 306 -9C319 -9 343 4 387 35L433 67L425 86L382 62C368 54 361 52 353 52C343 52 336 58 327 75C292 139 270 193 231 316L245 330C306 391 352 416 402 416C410 416 421 414 438 410L455 473C437 479 419 482 407 482C341 482 258 405 133 230Z" transform="matrix(1,0,0,1,571.09375,157.21975) matrix(0.029376000000000003,0,0,-0.029376000000000003,0,0)"/></g><g><path fill="#000" stroke="#000" stroke-width="8" d="M245 -184L254 -171C248 -140 246 -112 246 -44L246 578C246 628 250 665 250 691C250 706 249 717 245 726L51 726L45 720L45 694L49 689L87 689C114 689 136 683 148 673C157 664 160 649 160 616L160 -75C160 -108 157 -122 148 -131C136 -141 114 -147 87 -147L49 -147L45 -152L45 -178L51 -184Z" transform="matrix(1,0,0,1,584.828125,157.21975) matrix(0.029376000000000003,0,0,-0.029376000000000003,0,0)"/></g></g></g></svg></svg>