<svg xmlns="http://www.w3.org/2000/svg" style="width:662px;height:302px;background:0 0" width="662" height="302" fill="none"><svg xmlns="http://www.w3.org/2000/svg" class="role-diagram-draw-area"><g fill="none" stroke="#000" class="shapes-region"><g class="composite-shape"><path fill="none" stroke="#000" stroke-width="1" d="M222.94,33 L372.51,33 L372.51,255 L222.94,255 Z" class="real"/></g><g class="arrow-line"><path fill="none" stroke="#000" stroke-width="1" d="M131.5,141 L217.74,141.1" class="connection real"/><g stroke="#000" stroke-width="1"><path d="M10.93,-3.29 Q4.96,-0.45 0,0 Q4.96,0.45 10.93,3.29" transform="matrix(-0.9999994516886945,-0.001047197359800095,0.001047197359800095,-0.9999994516886945,219.73809492375065,141.10000000000005)"/></g></g><g class="arrow-line"><path fill="none" stroke="#000" stroke-width="1" d="M372.31,129 L513.5,130.97" class="connection real"/><g stroke="#000" stroke-width="1"><path d="M10.93,-3.29 Q4.96,-0.45 0,0 Q4.96,0.45 10.93,3.29" transform="matrix(-0.9999025240093042,-0.013962180339145168,0.013962180339145168,-0.9999025240093042,515.5,130.99999999999997)"/></g></g></g></svg><svg xmlns="http://www.w3.org/2000/svg" style="width:660px;height:300px;background:0 0" width="660" height="300" font-family="Asana-Math, Asana"><g><g><text x="271.039" y="135" fill="#000" stroke="none" dominant-baseline="text-before-edge" font-family="Arial, Helvetica, sans-serif" font-size="15" font-style="normal" font-weight="400" text-decoration="none solid rgb(0, 0, 0)" style="white-space:pre">sampler</text></g></g><g><g><g><path fill="#000" stroke="#000" stroke-width="8" d="M9 1C24 -7 40 -11 52 -11C85 -11 124 18 155 65L231 182L242 113C255 28 278 -11 314 -11C336 -11 368 6 400 35L449 79L440 98C404 68 379 53 363 53C348 53 335 63 325 83C316 102 305 139 300 168L282 269L317 318C364 383 391 406 422 406C438 406 450 398 455 383L469 387L484 472C472 479 463 482 454 482C414 482 374 446 312 354L275 299L269 347C257 446 230 482 171 482C145 482 123 474 114 461L56 378L73 368C103 402 123 416 142 416C175 416 197 375 214 277L225 215L185 153C142 86 108 54 80 54C65 54 54 58 52 63L41 91L21 88C21 53 13 27 9 1Z" transform="matrix(1,0,0,1,91.7265625,146.890625) matrix(0.017,0,0,-0.017,0,0)"/></g><g><path fill="#000" stroke="#000" stroke-width="8" d="M146 266C146 526 243 632 301 700L282 726C225 675 60 542 60 266C60 159 85 58 133 -32C168 -99 200 -138 282 -215L301 -194C255 -137 146 -15 146 266Z" transform="matrix(1,0,0,1,100.1953125,146.890625) matrix(0.017,0,0,-0.017,0,0)"/></g><g><path fill="#000" stroke="#000" stroke-width="8" d="M125 390L69 107C68 99 56 61 56 31C56 6 67 -9 86 -9C121 -9 156 11 234 74L265 99L255 117L210 86C181 66 161 56 150 56C141 56 136 64 136 76C136 102 150 183 179 328L192 390L299 390L310 440C272 436 238 434 200 434C216 528 227 577 245 631L234 646C214 634 187 622 156 610L131 440C87 419 61 408 43 403L41 390Z" transform="matrix(1,0,0,1,105.8515625,146.890625) matrix(0.017,0,0,-0.017,0,0)"/></g><g><path fill="#000" stroke="#000" stroke-width="8" d="M51 726L32 700C87 636 187 526 187 266C187 -10 83 -131 32 -194L51 -215C104 -165 273 -23 273 265C273 542 108 675 51 726Z" transform="matrix(1,0,0,1,111.4921875,146.890625) matrix(0.017,0,0,-0.017,0,0)"/></g></g></g><g><g><g><path fill="#000" stroke="#000" stroke-width="8" d="M9 1C24 -7 40 -11 52 -11C85 -11 124 18 155 65L231 182L242 113C255 28 278 -11 314 -11C336 -11 368 6 400 35L449 79L440 98C404 68 379 53 363 53C348 53 335 63 325 83C316 102 305 139 300 168L282 269L317 318C364 383 391 406 422 406C438 406 450 398 455 383L469 387L484 472C472 479 463 482 454 482C414 482 374 446 312 354L275 299L269 347C257 446 230 482 171 482C145 482 123 474 114 461L56 378L73 368C103 402 123 416 142 416C175 416 197 375 214 277L225 215L185 153C142 86 108 54 80 54C65 54 54 58 52 63L41 91L21 88C21 53 13 27 9 1Z" transform="matrix(1,0,0,1,532.03125,134.34375) matrix(0.017,0,0,-0.017,0,0)"/></g><g><path fill="#000" stroke="#000" stroke-width="8" d="M146 266C146 526 243 632 301 700L282 726C225 675 60 542 60 266C60 159 85 58 133 -32C168 -99 200 -138 282 -215L301 -194C255 -137 146 -15 146 266Z" transform="matrix(1,0,0,1,540.5,134.34375) matrix(0.017,0,0,-0.017,0,0)"/></g><g><path fill="#000" stroke="#000" stroke-width="8" d="M240 722L228 733C176 707 140 698 68 691L64 670L112 670C136 670 146 663 146 646C146 638 145 629 144 622L96 354C82 279 66 210 14 1L23 -9L90 8L113 132C122 180 146 225 180 259C249 59 281 -9 306 -9C319 -9 343 4 387 35L433 67L425 86L382 62C368 54 361 52 353 52C343 52 336 58 327 75C292 139 270 193 231 316L245 330C306 391 352 416 402 416C410 416 421 414 438 410L455 473C437 479 419 482 407 482C341 482 258 405 133 230ZM593 390L537 107C536 99 524 61 524 31C524 6 535 -9 554 -9C589 -9 624 11 702 74L733 99L723 117L678 86C649 66 629 56 618 56C609 56 604 64 604 76C604 102 618 183 647 328L660 390L767 390L778 440C740 436 706 434 668 434C684 528 695 577 713 631L702 646C682 634 655 622 624 610L599 440C555 419 529 408 511 403L509 390Z" transform="matrix(1,0,0,1,546.15625,134.34375) matrix(0.017,0,0,-0.017,0,0)"/></g><g><path fill="#000" stroke="#000" stroke-width="8" d="M51 726L32 700C87 636 187 526 187 266C187 -10 83 -131 32 -194L51 -215C104 -165 273 -23 273 265C273 542 108 675 51 726Z" transform="matrix(1,0,0,1,559.75,134.34375) matrix(0.017,0,0,-0.017,0,0)"/></g><g><path fill="#000" stroke="#000" stroke-width="8" transform="matrix(1,0,0,1,565.40625,134.34375) matrix(0.017,0,0,-0.017,0,0)"/></g><g><path fill="#000" stroke="#000" stroke-width="8" d="M604 347L604 406L65 406L65 347ZM604 134L604 193L65 193L65 134Z" transform="matrix(1,0,0,1,574.625,134.34375) matrix(0.017,0,0,-0.017,0,0)"/></g><g><path fill="#000" stroke="#000" stroke-width="8" d="M258 1C273 -7 289 -11 301 -11C334 -11 373 18 404 65L480 182L491 113C504 28 527 -11 563 -11C585 -11 617 6 649 35L698 79L689 98C653 68 628 53 612 53C597 53 584 63 574 83C565 102 554 139 549 168L531 269L566 318C613 383 640 406 671 406C687 406 699 398 704 383L718 387L733 472C721 479 712 482 703 482C663 482 623 446 561 354L524 299L518 347C506 446 479 482 420 482C394 482 372 474 363 461L305 378L322 368C352 402 372 416 391 416C424 416 446 375 463 277L474 215L434 153C391 86 357 54 329 54C314 54 303 58 301 63L290 91L270 88C270 53 262 27 258 1Z" transform="matrix(1,0,0,1,590.96875,134.34375) matrix(0.017,0,0,-0.017,0,0)"/></g><g><path fill="#000" stroke="#000" stroke-width="8" d="M88 -184C88 -184 182 -183 182 -183C182 -183 282 -184 282 -184L288 -178L288 -152L284 -147L246 -147C219 -147 197 -141 185 -131C176 -122 173 -108 173 -75L173 616C173 649 176 664 185 673C197 683 219 689 246 689L284 689L288 694L288 720L282 726L188 723L88 726C84 717 83 706 83 691C83 665 87 628 87 578L87 -44C87 -112 85 -140 79 -171Z" transform="matrix(1,0,0,1,603.671875,134.34375) matrix(0.017,0,0,-0.017,0,0)"/></g><g><path fill="#000" stroke="#000" stroke-width="8" d="M240 722L228 733C176 707 140 698 68 691L64 670L112 670C136 670 146 663 146 646C146 638 145 629 144 622L96 354C82 279 66 210 14 1L23 -9L90 8L113 132C122 180 146 225 180 259C249 59 281 -9 306 -9C319 -9 343 4 387 35L433 67L425 86L382 62C368 54 361 52 353 52C343 52 336 58 327 75C292 139 270 193 231 316L245 330C306 391 352 416 402 416C410 416 421 414 438 410L455 473C437 479 419 482 407 482C341 482 258 405 133 230Z" transform="matrix(1,0,0,1,609.328125,134.34375) matrix(0.017,0,0,-0.017,0,0)"/></g><g><path fill="#000" stroke="#000" stroke-width="8" d="M245 -184L254 -171C248 -140 246 -112 246 -44L246 578C246 628 250 665 250 691C250 706 249 717 245 726L51 726L45 720L45 694L49 689L87 689C114 689 136 683 148 673C157 664 160 649 160 616L160 -75C160 -108 157 -122 148 -131C136 -141 114 -147 87 -147L49 -147L45 -152L45 -178L51 -184Z" transform="matrix(1,0,0,1,617.28125,134.34375) matrix(0.017,0,0,-0.017,0,0)"/></g></g></g></svg></svg>